<?xml version="1.0" encoding="utf-8"?>
<!-- Generator: Adobe Illustrator 14.0.0, SVG Export Plug-In . SVG Version: 6.00 Build 43363)  -->
<!DOCTYPE svg PUBLIC "-//W3C//DTD SVG 1.1//EN" "http://www.w3.org/Graphics/SVG/1.1/DTD/svg11.dtd">
<svg version="1.1" id="圖層_1" xmlns="http://www.w3.org/2000/svg" xmlns:xlink="http://www.w3.org/1999/xlink" x="0px" y="0px"
	 width="140px" height="140px" viewBox="0 0 140 140" enable-background="new 0 0 140 140" xml:space="preserve">
<path fill="#FFFFFF" d="M107.616,115.225c0,0-24.722,4.053-37.617,3.705c-12.894,0.348-37.615-3.705-37.615-3.705
	c-5.168-1.108-8.719-2.201-8.359-7.565l1.672-16.813c2.205-4.643,3.742-6.188,8.359-8.406c0,0,18.158-4.239,22.569-7.565
	c0.257-0.192,0.54-0.338,0.836-0.453v-8.794c0-0.038,0.005-0.074,0.005-0.111c-1.625-2.878-3.09-6.087-4.349-9.336
	c-0.032,0.019-0.063,0.039-0.096,0.058c-1.575,0.881-2.739-1.003-4.756-4.061l-1.987-4c-0.488-2.421-0.182-5.813,2.696-6.021
	c-0.462-2.366-0.709-4.417-0.709-5.951c0-9.75,9.544-17.653,21.315-17.653c11.773,0,21.316,7.904,21.316,17.653
	c0,1.534-0.228,3.586-0.652,5.952c2.828,0.247,3.125,3.614,2.638,6.021l-1.985,4c-1.935,2.932-3.088,4.758-4.566,4.127
	c-1.109,3.021-2.396,5.998-3.824,8.709c0.016,0.204,0.031,0.407,0.031,0.614v8.794c0.297,0.115,0.58,0.26,0.836,0.453
	c4.412,3.326,22.57,7.566,22.57,7.566c4.617,2.217,6.154,3.764,8.358,8.406l1.673,16.813
	C116.333,113.021,112.784,114.115,107.616,115.225z"/>
</svg>
