<?xml version="1.0" encoding="utf-8"?>
<!-- Generator: Adobe Illustrator 14.0.0, SVG Export Plug-In . SVG Version: 6.00 Build 43363)  -->
<!DOCTYPE svg PUBLIC "-//W3C//DTD SVG 1.1//EN" "http://www.w3.org/Graphics/SVG/1.1/DTD/svg11.dtd">
<svg version="1.1" id="圖層_1" xmlns="http://www.w3.org/2000/svg" xmlns:xlink="http://www.w3.org/1999/xlink" x="0px" y="0px"
	 width="140px" height="140px" viewBox="0 0 140 140" enable-background="new 0 0 140 140" xml:space="preserve">
<g>
	<path fill="#FFFFFF" d="M115.561,52.964h5.205c0.818,0,1.481-0.629,1.481-1.405V37.554c0-0.776-0.663-1.404-1.481-1.404h-5.205
		V52.964z"/>
	<path fill="#FFFFFF" d="M115.561,72.298h5.205c0.818,0,1.481-0.629,1.481-1.403V56.889c0-0.776-0.663-1.404-1.481-1.404h-5.205
		V72.298z"/>
	<path fill="#FFFFFF" d="M115.561,91.632h5.205c0.818,0,1.481-0.629,1.481-1.403V76.225c0-0.777-0.663-1.404-1.481-1.404h-5.205
		V91.632z"/>
	<path fill="#FFFFFF" d="M54.543,91.632c-3.798,0-7.373-0.93-10.545-2.545l-3.834,4.634l0.798,0.682
		c0.882,0.75,0.997,2.082,0.257,2.977L27.82,113.564c-0.739,0.896-2.055,1.011-2.937,0.261l-6.387-5.435
		c-0.882-0.75-0.996-2.082-0.257-2.977l13.398-16.188c0.739-0.896,2.055-1.013,2.937-0.263l0.798,0.681l3.441-4.156
		c-4.705-4.307-7.678-10.494-7.678-17.396c0-12.999,10.48-23.538,23.406-23.538c12.927,0,23.406,10.539,23.406,23.538
		S67.47,91.632,54.543,91.632 M54.543,54.644c-7.387,0-13.375,6.022-13.375,13.45c0,7.43,5.988,13.45,13.375,13.45
		s13.375-6.021,13.375-13.45C67.918,60.666,61.93,54.644,54.543,54.644"/>
	<path fill="#FFFFFF" d="M108.925,24.381H51.977c-2.278,0-4.127,1.882-4.127,4.203v12.595c2.143-0.537,4.381-0.826,6.688-0.826
		c15.235,0,27.585,12.42,27.585,27.741c0,15.321-12.35,27.741-27.585,27.741c-2.308,0-4.546-0.289-6.688-0.826v4.189
		c0,2.321,1.849,4.202,4.127,4.202h56.948c2.28,0,4.127-1.881,4.127-4.202V33.287H54.038v-2.681h59.014v-2.022
		C113.052,26.263,111.205,24.381,108.925,24.381z"/>
</g>
</svg>
