<?xml version="1.0" encoding="utf-8"?>
<!-- Generator: Adobe Illustrator 14.0.0, SVG Export Plug-In . SVG Version: 6.00 Build 43363)  -->
<!DOCTYPE svg PUBLIC "-//W3C//DTD SVG 1.1//EN" "http://www.w3.org/Graphics/SVG/1.1/DTD/svg11.dtd">
<svg version="1.1" id="圖層_1" xmlns="http://www.w3.org/2000/svg" xmlns:xlink="http://www.w3.org/1999/xlink" x="0px" y="0px"
	 width="140px" height="140px" viewBox="0 0 140 140" enable-background="new 0 0 140 140" xml:space="preserve">
<path fill="#FFFFFF" d="M104.689,26.392c-0.274,0-0.555,0.019-0.836,0.044v-0.044H34.474v0.033
	c-10.08,0.681-23.42,13.617-18.391,42.42c4.264,24.416,10.322,49.045,19.227,44.131c8.057-4.444,13.76-18.679,18.713-39.509h31.956
	c4.953,20.83,10.655,35.063,18.713,39.509c8.904,4.914,14.963-19.716,19.227-44.131C129.087,39.239,114.848,26.392,104.689,26.392z
	 M49.103,53.293h-7.941v8.827c0,1.625-1.311,2.942-2.926,2.942c-1.615,0-2.926-1.317-2.926-2.942v-8.827h-8.777
	c-1.615,0-2.926-1.317-2.926-2.942s1.311-2.942,2.926-2.942h8.777v-7.986c0-1.625,1.311-2.942,2.926-2.942
	c1.615,0,2.926,1.317,2.926,2.942v7.986h7.941c1.615,0,2.926,1.317,2.926,2.942S50.718,53.293,49.103,53.293z M96.331,60.018
	c-2.31,0-4.181-1.882-4.181-4.204c0-2.321,1.871-4.203,4.181-4.203s4.181,1.882,4.181,4.203
	C100.512,58.136,98.641,60.018,96.331,60.018z M108.034,50.771c-2.31,0-4.181-1.881-4.181-4.203c0-2.321,1.871-4.203,4.181-4.203
	c2.309,0,4.18,1.882,4.18,4.203C112.214,48.889,110.343,50.771,108.034,50.771z"/>
</svg>
