<?xml version="1.0" encoding="utf-8"?>
<!-- Generator: Adobe Illustrator 16.0.0, SVG Export Plug-In . SVG Version: 6.00 Build 0)  -->
<!DOCTYPE svg PUBLIC "-//W3C//DTD SVG 1.1//EN" "http://www.w3.org/Graphics/SVG/1.1/DTD/svg11.dtd">
<svg version="1.1" id="圖層_1" xmlns="http://www.w3.org/2000/svg" xmlns:xlink="http://www.w3.org/1999/xlink" x="0px" y="0px"
	 width="600px" height="600px" viewBox="0 0 600 600" enable-background="new 0 0 600 600" xml:space="preserve">
<path fill="#FFFFFF" d="M201.532,368.315c-13.425-19.356-21.328-42.837-21.328-68.192c0-11.367,1.673-22.309,4.623-32.728h22.927
	c-3.654,10.249-5.731,21.244-5.731,32.728c0,18.878,5.454,36.478,14.724,51.457L201.532,368.315z M249.419,216.281
	c14.818-9.056,32.163-14.34,50.785-14.34c15.554,0,30.233,3.729,43.315,10.206l15.193-16.747
	c-17.324-9.695-37.246-15.277-58.509-15.277c-23.246,0-44.799,6.807-63.176,18.249l-20.167-29.158l-23.47,76.364h76.3
	L249.419,216.281z M415.559,332.852c2.961-10.419,4.646-21.359,4.646-32.728c0-31.258-12.146-59.532-31.746-80.86l31.746-35.37
	l-15.81-14.68l-224.19,247.142l15.512,14.682l32.301-35.307c20.092,15.234,45.021,24.396,72.188,24.396
	c23.203,0,44.722-6.775,63.046-18.195l20.221,29.104l23.48-76.24h-76.302l20.222,29.233c-14.787,9.017-32.109,14.279-50.667,14.279
	c-21.488,0-41.293-7.011-57.454-18.774l131.024-144.141c15.277,17.28,24.609,39.908,24.609,64.731
	c0,11.484-2.088,22.479-5.73,32.728H415.559z"/>
<path fill="#FFFFFF" d="M550.561,125h-500C22.949,125,0,145.931,0,173.519v250C0,451.119,22.948,475,50.561,475h500
	C578.149,475,600,451.117,600,423.519v-250C600,145.931,578.149,125,550.561,125z M53,336.02c0,6.896-5.591,12.5-12.5,12.5
	c-6.885,0-12.5-5.604-12.5-12.5v-75c0-6.885,5.615-12.5,12.5-12.5c6.909,0,12.5,5.615,12.5,12.5V336.02z M517,452H82V147h435V452z
	 M559.399,323.508c-13.818,0-25-11.17-25-25c0-13.795,11.182-24.977,25-24.977s25,11.182,25,24.977
	C584.399,312.338,573.217,323.508,559.399,323.508z"/>
</svg>
