<svg xmlns="http://www.w3.org/2000/svg" width="36" height="36" viewBox="0 0 36 36">
<g fill-rule="nonzero">
<path d="M16.169 1.687c3.572 0 6.804 2.117 8.232 5.391 2.711.062 5.135 1.705 6.194 4.202 3.068.19 5.43 2.782 5.335 5.855-.071 2.283-1.48 4.218-3.462 5.06.207.12.37.307.46.533.112.271.11.575-.001.846l-1.558 3.757c-.113.275-.33.493-.606.605-.274.112-.583.109-.855-.009l-2.162-.895c-.666.878-1.45 1.66-2.328 2.326l.897 2.174c.116.266.119.568.008.836-.113.277-.332.498-.61.612l-3.752 1.556c-.272.113-.578.114-.85 0-.272-.113-.487-.33-.598-.603l-.902-2.171c-1.091.152-2.199.154-3.29.005l-.898 2.169c-.17.415-.574.686-1.023.688-.151 0-.3-.032-.44-.092l-3.746-1.553c-.276-.114-.495-.334-.607-.611-.111-.273-.107-.58.013-.85l.892-2.156c-.878-.668-1.661-1.452-2.329-2.33l-2.176.899c-.271.113-.576.113-.847-.002-.27-.111-.486-.326-.599-.596L3.01 23.57c-.235-.558.024-1.201.58-1.44l.722-.298C1.756 20.555 0 17.913 0 14.861c0-4.299 3.485-7.784 7.785-7.784l.151.001c1.428-3.274 4.66-5.39 8.233-5.39zM5.986 22.437l-1.836.756 1.483 3.597 2.528-1.044c.259-.107.557-.02.718.21.738 1.054 1.656 1.97 2.71 2.709.23.16.318.46.21.72l-1.043 2.522 3.593 1.49 1.045-2.524c.107-.26.38-.41.657-.361 1.266.225 2.561.224 3.826-.005.277-.05.55.1.659.36l1.05 2.527 3.588-1.488-1.044-2.528c-.107-.26-.019-.56.213-.72 1.055-.735 1.971-1.65 2.708-2.703.16-.23.46-.317.718-.21l2.527 1.046 1.491-3.595-1.33-.553c-.072.002-.144.004-.216.004h-4.05c-1.43 3.251-4.648 5.375-8.226 5.389-3.578-.014-6.796-2.138-8.227-5.389H7.785c-.62 0-1.221-.073-1.799-.21zm18.881.21H11.063c1.326 2.554 3.976 4.191 6.902 4.191s5.576-1.637 6.902-4.19zM16.16 2.885c-3.232.004-6.125 2.004-7.27 5.027-.096.254-.35.411-.62.384-.161-.015-.323-.022-.485-.021-3.638 0-6.587 2.949-6.587 6.587s2.949 6.587 6.587 6.587l2.282-.001c.043-.005.088-.005.132 0H25.73l.057-.004c.025 0 .05.001.075.004h4.378c.099 0 .197-.002.294-.009.005-.002.011-.002.017-.002 2.337-.16 4.18-2.104 4.18-4.48 0-2.48-2.01-4.49-4.491-4.49h-.06c-.254 0-.48-.16-.565-.4-.806-2.286-2.974-3.81-5.398-3.792-.059 0-.117 0-.175.004-.263.017-.506-.139-.601-.384-1.152-3.02-4.05-5.014-7.282-5.01zm3.003 7.785c1.322 0 2.395 1.072 2.395 2.395s-1.073 2.396-2.395 2.396h-1.797v2.994c0 .33-.268.599-.599.599-.33 0-.599-.269-.599-.6V11.27c0-.33.269-.599.6-.599h2.395zm-6.588 0l.095.007.021.004.077.02.006.003.011.004.033.013.027.012-.032-.013.031.013.024.013c.05.028.094.062.134.103l.014.015c.016.016.031.035.045.054l.013.019c.011.016.022.035.032.054.008.016.016.032.023.05l.015.038 2.395 7.186c.06.183.03.384-.083.54-.112.156-.293.249-.485.249-.258 0-.487-.165-.568-.41l-.863-2.586h-1.93l-.862 2.586c-.081.245-.31.41-.568.41-.192 0-.373-.093-.485-.25-.113-.155-.144-.356-.083-.539l2.395-7.186.002-.006.013-.033.01-.025.003-.006-.012.03.02-.045.034-.058.013-.018c.014-.02.029-.038.045-.055l.013-.014c.04-.04.086-.075.135-.103l.016-.009.077-.033.024-.008.08-.019c.032-.005.064-.007.095-.007zm13.175 0c.33 0 .599.268.599.599 0 .33-.269.599-.6.599h-1.197v5.987h1.198c.33 0 .599.269.599.6 0 .33-.269.599-.6.599h-3.592c-.331 0-.6-.269-.6-.6 0-.33.269-.598.6-.598h1.197v-5.989h-1.197c-.331 0-.6-.267-.6-.598 0-.33.269-.599.6-.599h3.593zm-19.466-.394c.142.3.014.656-.285.798-1.465.694-2.4 2.167-2.406 3.788-.004.953.324 1.878.926 2.617.146.18.175.426.076.635-.1.208-.31.34-.54.34-.181.001-.353-.08-.466-.221-1.038-1.284-1.427-2.974-1.057-4.583.37-1.609 1.46-2.958 2.955-3.66.299-.14.656-.013.797.286zm6.291 2.885l-.567 1.7h1.134l-.567-1.7zm6.588-1.293h-1.797v2.395h1.797c.661 0 1.197-.536 1.197-1.198 0-.661-.536-1.197-1.197-1.197zm-6.384-1.162l.029.012-.023-.01-.006-.002zm-.01-.004l.01.004-.005-.002-.005-.002zm-.004-.001l.004.001h-.001l-.003-.001zm2.805-6.618c.33-.001.6.266.6.597 0 .33-.267.6-.597.6-.117.002-2.591.077-3.627 3.184-.082.245-.31.41-.568.41-.193 0-.373-.093-.486-.25-.112-.156-.143-.356-.082-.539 1.319-3.957 4.62-4.002 4.76-4.002z" transform="translate(-100.000000, -2105.000000) translate(40.000000, 1857.000000) translate(0.000000, 216.000000) translate(60.000000, 27.000000) translate(0.000000, 5.000000)"/>
</g>
</svg>