<svg xmlns="http://www.w3.org/2000/svg" width="36" height="36" viewBox="0 0 36 36">
<g fill-rule="nonzero">
<path d="M34.134 0c.97.032 1.743.802 1.795 1.754l.002.152v26.13c.026.971-.698 1.788-1.646 1.895l-.151.011H23.725l1.198 2.396h2.025c.992 0 1.797.804 1.797 1.796 0 .943-.726 1.716-1.65 1.79l-.147.007H8.983c-.992 0-1.796-.805-1.796-1.797 0-.942.726-1.716 1.649-1.79l.147-.006h2.025l1.198-2.396H1.797c-.97-.03-1.743-.8-1.794-1.753L0 28.037V1.907C-.025.935.698.118 1.646.011L1.797 0h32.337zm-7.186 33.535H8.983c-.33 0-.599.268-.599.599 0 .298.217.545.502.591l.097.008h17.965c.33 0 .599-.268.599-.599 0-.33-.268-.599-.599-.599zm-4.562-3.593h-8.84l-1.199 2.396h11.237l-1.198-2.396zm12.347-3.593H1.198v1.688c-.02.326.196.613.504.69l.095.018h32.337c.325-.034.573-.295.598-.612V26.35zM34.134 1.2H1.797c-.325.033-.573.294-.598.61v23.343h33.534V1.906c.023-.358-.242-.67-.599-.708zm-7.187 1.197c.943 0 1.716.726 1.791 1.65l.006.146v9.196l2.202.599c.585.159 1.04.617 1.196 1.202.155.586-.013 1.21-.441 1.638-.173.174-.193.443-.058.639l.058.069.139.139c.624.624.66 1.613.11 2.28l-.11.122-.986.985c-.524.525-1.324.644-1.973.31l-.136-.079v.865c0 .943-.726 1.716-1.65 1.79l-.147.007H5.39c-.942 0-1.715-.726-1.79-1.65l-.006-.147V4.192c0-.942.726-1.715 1.649-1.79l.147-.006h21.557zm.6 5.988H4.79v13.773c0 .298.218.545.502.591l.097.008h21.558c.298 0 .545-.217.591-.501l.008-.098v-1.19c-.434.403-1.047.549-1.616.385-.522-.15-.936-.54-1.12-1.044l-.045-.14-1.49-5.465c-.17-.622.006-1.288.462-1.744.418-.418 1.012-.6 1.587-.498l.157.035 2.065.564V8.384zm-2.959 5.425c-.13.13-.192.31-.172.49l.017.089 1.488 5.465c.046.173.182.307.355.353.173.046.357-.004.483-.13.318-.32.75-.498 1.2-.498.395 0 .775.137 1.077.384l.124.113.14.139c.093.094.22.147.353.147.107 0 .21-.034.294-.096l.06-.051.986-.986c.094-.094.147-.221.147-.354 0-.106-.034-.209-.095-.294l-.052-.06-.139-.139c-.661-.664-.661-1.737 0-2.401.128-.125.178-.31.13-.483-.037-.144-.137-.261-.269-.323l-.083-.03-5.465-1.49c-.207-.055-.428.004-.579.155zm2.36-10.215H5.39c-.297 0-.544.217-.59.501l-.009.097v2.995h22.756V4.192c0-.33-.268-.598-.599-.598zM6.588 4.79c.33 0 .599.268.599.6 0 .33-.268.598-.6.598-.33 0-.598-.268-.598-.599 0-.33.268-.599.599-.599zm2.395 0c.33 0 .599.268.599.6 0 .33-.268.598-.599.598-.33 0-.599-.268-.599-.599 0-.33.268-.599.6-.599zm2.395 0c.331 0 .6.268.6.6 0 .33-.269.598-.6.598-.33 0-.598-.268-.598-.599 0-.33.268-.599.598-.599z" transform="translate(-100.000000, -1985.000000) translate(40.000000, 1857.000000) translate(0.000000, 96.000000) translate(60.000000, 27.000000) translate(0.000000, 5.000000)"/>
</g>
</svg>