<svg xmlns="http://www.w3.org/2000/svg" width="80" height="80" viewBox="0 0 80 80"><g fill-rule="evenodd"><g fill-rule="nonzero"><g><path d="M80 25.052c0-.353-.14-.692-.39-.942L60.912 5.414c-.53-.5-1.357-.5-1.886 0l-9.333 9.335c-3.11-2.272-7.357-2.171-10.355.246-2.874-1.56-6.39-1.323-9.028.608l-9.338-9.34c-.25-.25-.59-.39-.943-.39-.354 0-.693.14-.943.39L.391 24.96c-.25.25-.391.589-.391.942 0 .354.14.693.39.943l9.26 9.26c-3.244 3.35-3.205 8.682.088 11.985l1.617 1.617c-1.703 1.773-2.182 4.391-1.218 6.652.964 2.262 3.185 3.729 5.643 3.728.245-.009.489-.033.73-.071-.222 1.74.317 3.492 1.48 4.807 1.161 1.315 2.833 2.065 4.588 2.059.077 0 .152-.02.229-.022-.29 1.97.638 3.918 2.35 4.934 1.712 1.015 3.868.894 5.457-.305.223.79.643 1.511 1.22 2.096 1.93 1.925 5.054 1.925 6.984 0l.757-.757 1.607 1.607c1.224 1.243 3.015 1.742 4.705 1.31 1.69-.43 3.023-1.728 3.5-3.405 1.578 1.246 3.761 1.392 5.491.367 1.73-1.026 2.65-3.01 2.315-4.993.077.003.15.022.227.022 3.396-.002 6.147-2.756 6.145-6.151-.01-.242-.036-.482-.075-.72.242.037.486.06.73.069 2.484.003 4.725-1.492 5.676-3.787.95-2.296.424-4.938-1.335-6.692l-.757-.757 2.458-2.457c3.293-3.303 3.332-8.635.087-11.986l9.26-9.26c.25-.25.39-.59.39-.943zm-66.676 31.35c-1.354-1.357-1.354-3.555 0-4.912l5.1-5.1c.877-.877 2.156-1.22 3.355-.898 1.198.321 2.135 1.257 2.456 2.456.321 1.199-.022 2.478-.9 3.356l-5.098 5.099c-1.375 1.312-3.538 1.312-4.913 0zm11.705 6.805c-1.358 1.35-3.552 1.347-4.907-.005-1.354-1.358-1.354-3.556 0-4.914l5.1-5.099c1.357-1.353 3.554-1.352 4.909.004 1.355 1.355 1.357 3.552.004 4.91l-5.106 5.104zm6.802 3.396l-2.547 2.547c-.889.885-2.326.885-3.214 0-.885-.888-.885-2.325 0-3.214l.844-.844.006-.004 5.1-5.1.85-.85c.887-.885 2.323-.884 3.21.001.887.886.89 2.322.005 3.21L31.833 66.6l-.002.003zm5.101 5.096c-.888.886-2.325.886-3.213 0-.885-.887-.886-2.322-.003-3.21l4.253-4.252.002-.002 2.547-2.547c.574-.574 1.411-.799 2.195-.588.784.21 1.397.822 1.607 1.606.21.784-.014 1.621-.588 2.195l-6.8 6.798zm9.35.85c-.889.886-2.326.886-3.214 0l-1.607-1.607 3.214-3.213 1.605 1.606c.885.889.885 2.325.001 3.215zm20.394-15.296c-1.358 1.354-3.555 1.354-4.913 0L50.716 46.205c-.52-.52-1.365-.52-1.885 0-.521.52-.521 1.365 0 1.885l11.046 11.048c.654.65 1.021 1.535 1.021 2.457 0 .922-.367 1.806-1.02 2.456-1.38 1.33-3.566 1.321-4.934-.02l-3.356-3.208c-.532-.506-1.374-.486-1.882.045-.508.53-.49 1.373.039 1.882l3.334 3.187.85.848c.575.574.801 1.411.592 2.197-.21.785-.823 1.399-1.608 1.609-.785.21-1.623-.015-2.197-.59l-4.302-4.303c1.149-2.025.719-4.578-1.03-6.114-1.749-1.537-4.336-1.635-6.196-.235-.66-2.356-2.976-3.847-5.394-3.474.081-1.792-.634-3.53-1.955-4.745-1.321-1.214-3.112-1.782-4.892-1.55.322-2.596-1.042-5.11-3.393-6.255-2.35-1.146-5.17-.672-7.016 1.18l-3.307 3.307-1.607-1.607c-2.292-2.297-2.292-6.015 0-8.312l.85-.848c.25-.25.391-.59.39-.944 0-.02-.01-.04-.011-.06-.011-.332-.146-.647-.378-.883l-.004-.003-9.252-9.253 16.81-16.81 9.255 9.255c.25.25.589.39.942.39.354 0 .693-.14.943-.39 1.595-1.6 3.971-2.133 6.097-1.37l-11.38 11.381c-2.395 2.399-2.393 6.283.003 8.68 2.396 2.396 6.28 2.399 8.68.005l8.405-8.405L66.676 52.34c.653.65 1.02 1.534 1.02 2.456 0 .922-.367 1.806-1.02 2.457zm.85-22.946c-.25.25-.39.59-.39.943 0 .354.14.693.39.943l.85.85c2.291 2.297 2.291 6.015 0 8.313l-2.457 2.456-21.059-21.06 2.456-2.456c.521-.52.521-1.365 0-1.886-.52-.52-1.364-.52-1.885 0l-3.396 3.396-.004.003-.002.004-9.345 9.345c-1.375 1.312-3.539 1.312-4.913 0-.654-.65-1.021-1.535-1.021-2.457 0-.922.367-1.807 1.02-2.457l12.748-12.746c2.296-2.294 6.016-2.294 8.313 0l1.699 1.699c.52.52 1.365.52 1.885 0s.52-1.365 0-1.886l-.756-.756 8.311-8.313 16.811 16.81-9.255 9.255z" transform="translate(-1124.000000, -3169.000000) translate(1124.000000, 3169.000000)"/></g></g></g></svg>
