<svg xmlns="http://www.w3.org/2000/svg" width="64" height="64" viewBox="0 0 64 64">
    <defs><linearGradient id="zc3916ddya" x1="100%" x2="100%" y1="0%" y2="100%">
        <stop offset="0%" stop-color="#E8C47E"/>
        <stop offset="100%" stop-color="#D8A843"/>
    </linearGradient></defs>
    <g fill="none" fill-rule="evenodd"><g fill="url(#zc3916ddya)" fill-rule="nonzero"><path d="M60.683.001c1.752.056 3.142 1.468 3.193 3.199v56.418c0 2.283-1.796 4.146-4.052 4.253l-.206.005H15.97c-1.76-.008-3.185-1.433-3.194-3.193 0-1.703 1.333-3.095 3.013-3.19l.18-.004h3.601l2.13-4.258H3.194C1.443 53.175.052 51.763 0 50.03V3.2C.051 1.53 1.345.158 3.01.012l.186-.01h57.488zM31.939 59.618h-15.97c-.587 0-1.064.477-1.064 1.065-.002.277.108.544.307.739.169.178.394.29.636.319l.122.006h16.56c-.383-.644-.587-1.379-.591-2.129zm29.808-.592c-.573.34-1.217.54-1.88.583l-.249.01h-23.42c-.667-.005-1.322-.167-1.912-.472l-.218-.12v.591c0 1.125.872 2.046 1.977 2.124l.152.005h23.421c1.125 0 2.046-.872 2.124-1.977l.005-.152v-.592zM31.94 53.231H24.08l-2.13 4.258h9.989V53.23zm6.92-34.067h-2.662c-1.125 0-2.046.872-2.124 1.977l-.005.152V55.36c0 1.125.872 2.046 1.977 2.124l.152.005h23.421c1.125 0 2.046-.872 2.124-1.977l.005-.152V21.293c0-1.125-.872-2.046-1.977-2.124l-.152-.005h-2.661l-2.236 2.98c-.564.75-1.426 1.211-2.355 1.271l-.2.007h-8.517c-.937-.002-1.824-.414-2.43-1.122l-.125-.156-2.235-2.98zm-.533 25.55H57.49c1.125 0 2.046.872 2.124 1.977l.005.152v6.388c0 1.124-.872 2.045-1.977 2.123l-.152.006H38.326c-1.125 0-2.046-.872-2.124-1.977l-.005-.152v-6.388c0-1.125.872-2.046 1.977-2.124l.152-.005H57.49zm19.163 2.129H38.326v6.388H57.49v-6.388zm-25.55 0H2.13v3.002c-.036.594.37 1.117.94 1.237l.125.02h28.744v-4.259zM60.683 2.13H3.195c-.592.062-1.04.548-1.066 1.13l.001.127v41.327H31.94V21.293c0-2.283 1.796-4.146 4.052-4.254l.206-.005h23.42c.667.004 1.322.166 1.912.471l.218.121V3.386c.04-.636-.43-1.19-1.064-1.256zM46.43 34.294l.1.086 4.57 4.57v-2.753c0-.588.477-1.064 1.065-1.064.549 0 1 .415 1.058.948l.007.116v5.323c0 .549-.415 1-.949 1.058l-.116.007h-5.323c-.588 0-1.064-.477-1.064-1.065 0-.549.415-1 .948-1.058l.116-.007h2.753l-4.57-4.57c-.404-.418-.398-1.081.013-1.492.379-.38.974-.413 1.392-.1zM27.68 23.422c1.175 0 2.129.953 2.129 2.13v14.903c0 1.176-.954 2.13-2.13 2.13H6.39c-1.176 0-2.13-.954-2.13-2.13V25.551c0-1.176.954-2.129 2.13-2.129zm0 2.13H6.388v14.903H27.68V25.551zm14.904 0c.587 0 1.064.476 1.064 1.064 0 .549-.415 1-.948 1.058l-.116.007h-2.753l4.57 4.57c.403.418.398 1.082-.013 1.492-.38.38-.974.413-1.392.099l-.1-.086-4.57-4.57v2.753c0 .588-.477 1.064-1.065 1.064-.55 0-1-.415-1.059-.948l-.006-.116v-5.323c0-.549.415-1 .949-1.058l.116-.007h5.323zm11.71-6.388H41.52l1.277 1.703c.176.234.44.385.728.418l.124.008h8.517c.293 0 .571-.12.771-.33l.08-.096 1.278-1.703zm-39.802-6.162l.1.086 4.57 4.57v-2.753c0-.587.478-1.064 1.065-1.064.55 0 1.001.415 1.059.948l.006.116v5.323c0 .55-.415 1-.949 1.059l-.116.006h-5.322c-.588 0-1.065-.477-1.065-1.065 0-.548.415-1 .949-1.058l.116-.006h2.753l-4.57-4.57c-.404-.418-.399-1.082.012-1.493.38-.38.974-.413 1.392-.099zM10.647 4.26c.588 0 1.065.476 1.065 1.064 0 .549-.416 1-.949 1.058l-.116.007H7.894l4.57 4.57c.404.418.398 1.082-.013 1.492-.379.38-.974.413-1.391.1l-.101-.087-4.57-4.57v2.753c0 .588-.477 1.065-1.065 1.065-.549 0-1-.416-1.058-.949l-.006-.116V5.324c0-.549.415-1 .948-1.058l.116-.006h5.323z"/></g></g>
</svg>
