<svg xmlns="http://www.w3.org/2000/svg" width="64" height="64" viewBox="0 0 64 64">
    <defs><linearGradient id="p0jnyrtbva" x1="100%" x2="100%" y1="0%" y2="100%">
        <stop offset="0%" stop-color="#E8C47E"/>
        <stop offset="100%" stop-color="#D8A843"/>
    </linearGradient></defs>
    <g fill="none" fill-rule="evenodd"><g fill="url(#p0jnyrtbva)" fill-rule="nonzero"><path d="M55.802 1.23c1.923-1.709 4.845-1.619 6.66.204 1.814 1.823 1.891 4.745.175 6.66L50.722 20.23h7.05c2.449-.008 4.586 1.658 5.174 4.035 2.755 11.212-.739 23.038-9.144 30.952-5.896 5.58-13.713 8.679-21.832 8.654-.687 0-1.376-.022-2.068-.064-12.341-.787-23.119-8.628-27.665-20.128C-2.31 32.178.193 19.086 8.66 10.074 14.707 3.66 23.126.019 31.939.005c.393 0 .795.01 1.19.022 2.887.076 5.19 2.434 5.197 5.322v10.957l17.476-15.08zm-23.863.904c-8.235 0-16.103 3.407-21.738 9.413-5.634 6.006-8.532 14.076-8.006 22.295C3.213 49.907 16.803 62.26 32.892 61.746c16.089-.514 28.862-13.711 28.85-29.808.003-2.414-.287-4.82-.862-7.164-.358-1.424-1.64-2.42-3.108-2.416h-9.14l-2.377 2.424c-.368.401-.783.759-1.234 1.064l-4.852 3.308c.064 1.223-.178 2.443-.706 3.549-1.423 2.95-4.596 4.557-8.874 4.557-.735-.002-1.47-.047-2.2-.133-1.417-.154-2.54-1.266-2.707-2.683-.286-2.423-.347-6.912 2.425-9.686 1.465-1.475 3.491-2.253 5.567-2.138l2.774-4.07c-.157-.49-.241-1-.251-1.514V5.349c-.011-1.738-1.4-3.152-3.137-3.194-.364-.01-.747-.02-1.12-.02zm0 45.77c2.938.003 5.319 2.384 5.322 5.322 0 2.939-2.382 5.322-5.322 5.322-2.939 0-5.322-2.383-5.322-5.322 0-2.94 2.383-5.322 5.322-5.322zm0 2.128c-1.763 0-3.193 1.43-3.193 3.194 0 1.763 1.43 3.193 3.193 3.193 1.764 0 3.194-1.43 3.194-3.193 0-1.764-1.43-3.194-3.194-3.194zm18.816-6.805c2.078 2.079 2.078 5.448 0 7.527-2.079 2.078-5.448 2.078-7.527 0-1.001-.996-1.564-2.35-1.564-3.764 0-1.412.563-2.767 1.564-3.763 2.079-2.078 5.448-2.078 7.527 0zm-30.105 0c2.078 2.078 2.078 5.448 0 7.526-2.079 2.078-5.448 2.078-7.527 0-2.078-2.078-2.078-5.448 0-7.526 2.08-2.075 5.447-2.075 7.527 0zm-6.022 1.506c-1.247 1.247-1.247 3.269 0 4.516 1.247 1.247 3.269 1.247 4.516 0 1.244-1.248 1.244-3.268 0-4.516-1.247-1.247-3.269-1.247-4.516 0zm30.106 0c-1.244 1.248-1.244 3.268 0 4.516 1.248 1.247 3.27 1.247 4.516 0 1.247-1.247 1.247-3.27 0-4.516-1.247-1.247-3.268-1.247-4.516 0zM10.651 26.616c2.94 0 5.322 2.382 5.322 5.322-.003 2.937-2.384 5.318-5.322 5.322-2.94 0-5.322-2.383-5.322-5.322 0-2.94 2.383-5.322 5.322-5.322zm42.576 0c2.94 0 5.322 2.382 5.322 5.322 0 2.939-2.382 5.322-5.322 5.322-2.937-.004-5.318-2.385-5.322-5.322 0-2.94 2.383-5.322 5.322-5.322zM33.273 24.73c-1.374.005-2.69.556-3.657 1.532-2.137 2.14-2.056 5.893-1.817 7.939.052.435.402.775.838.815 2.602.301 7.217.278 8.908-3.235.813-1.635.67-3.583-.371-5.083-.826-1.14-2.115-1.856-3.52-1.954-.128-.01-.254-.015-.381-.014zm-22.622 4.013c-1.763 0-3.193 1.43-3.193 3.194 0 1.763 1.43 3.193 3.193 3.193 1.764 0 3.193-1.43 3.193-3.193 0-1.764-1.43-3.194-3.193-3.194zm42.576 0c-1.763 0-3.193 1.43-3.193 3.194 0 1.763 1.43 3.193 3.193 3.193 1.764 0 3.194-1.43 3.194-3.193 0-1.764-1.43-3.194-3.194-3.194zM38.42 19.43l-2.51 3.683c1.19.48 2.223 1.286 2.98 2.324.328.454.597.949.8 1.471l3.69-2.52-4.96-4.958zM60.932 2.912c-1.024-1.005-2.652-1.045-3.723-.09l-17.382 15 5.185 5.185L61.086 6.632c.936-1.087.869-2.714-.154-3.72z"/></g></g>
</svg>
