<svg xmlns="http://www.w3.org/2000/svg" width="64" height="64" viewBox="0 0 64 64">
    <defs><linearGradient id="ahs41lnoya" x1="100%" x2="100%" y1="0%" y2="100%">
        <stop offset="0%" stop-color="#E8C47E"/>
        <stop offset="100%" stop-color="#D8A843"/>
    </linearGradient></defs>
    <g fill="none" fill-rule="evenodd"><g fill="url(#ahs41lnoya)" fill-rule="nonzero"><path d="M31.817 0c12.805 0 23.21 10.277 23.418 23.034l.003.387v5.323c3.45.003 6.26 2.738 6.383 6.158l.004.23v8.516c-.005 3.032-2.136 5.63-5.082 6.246l-.24.046v1.16c-.007 5.198-4.147 9.427-9.31 9.577l-.272.004h-7.603c-.467 1.808-2.053 3.092-3.901 3.188l-.206.006h-6.388c-2.352 0-4.258-1.906-4.258-4.258 0-2.283 1.796-4.146 4.052-4.254l.206-.004h6.388c1.866.006 3.502 1.227 4.05 2.995l.057.198h7.603c4.031-.004 7.314-3.206 7.448-7.206l.004-.246v-1.064h-6.387c-1.703 0-3.095-1.333-3.19-3.013l-.004-.181V31.938c.005-1.285.778-2.434 1.95-2.929l.179-.07v-5.518c0-8.232-6.673-14.904-14.904-14.904-8.126 0-14.733 6.502-14.901 14.588l-.004.316v5.519c1.211.428 2.042 1.536 2.123 2.806l.007.192v14.904c0 1.703-1.333 3.095-3.013 3.189l-.181.005H8.396c-3.45-.004-6.26-2.739-6.383-6.159l-.005-.229v-8.517c.004-3.45 2.739-6.26 6.159-6.383l.229-.004V23.42C8.396 10.486 18.882 0 31.816 0zm3.194 57.488h-6.388c-1.176 0-2.13.953-2.13 2.129 0 1.125.873 2.046 1.978 2.124l.152.005h6.388c1.175 0 2.129-.953 2.129-2.13 0-1.175-.954-2.128-2.13-2.128zM15.848 30.873h-3.194v17.033h3.194c.549 0 1-.415 1.058-.948l.006-.116V31.938c0-.588-.476-1.065-1.064-1.065zm35.131 0h-3.193c-.55 0-1 .415-1.059.949l-.006.116v14.904c0 .549.415 1 .949 1.058l.116.006h3.193V30.873zm4.259 0h-2.13v17.033h2.13c2.282 0 4.146-1.796 4.253-4.052l.005-.206v-8.517c0-2.351-1.906-4.258-4.258-4.258zm-44.713 0h-2.13c-2.282 0-4.145 1.796-4.253 4.052l-.004.206v8.517c0 2.283 1.796 4.146 4.052 4.254l.206.004h2.129V30.873zm21.292-20.227c7.055 0 12.775 5.72 12.775 12.775-.008 7.052-5.723 12.767-12.775 12.775-7.056 0-12.775-5.72-12.775-12.775 0-7.056 5.72-12.775 12.775-12.775zm0 2.129c-5.88 0-10.646 4.766-10.646 10.646.006 5.877 4.769 10.64 10.646 10.646 5.88 0 10.646-4.767 10.646-10.646 0-5.88-4.767-10.646-10.646-10.646zm0 6.388c.588 0 1.064.476 1.064 1.064v9.582h1.065c.588 0 1.065.476 1.065 1.064 0 .588-.477 1.065-1.065 1.065h-4.258c-.588 0-1.065-.477-1.065-1.065s.477-1.064 1.065-1.064h1.064v-8.517h-1.064c-.588 0-1.065-.477-1.065-1.065s.477-1.064 1.065-1.064zm0-17.034c-11.642 0-21.101 9.343-21.29 20.94l-.002.352v5.323h4.258V23.42c0-9.407 7.627-17.033 17.034-17.033 9.299 0 16.858 7.451 17.03 16.71l.003.323v5.323h4.259V23.42c0-11.76-9.533-21.292-21.292-21.292zm0 12.775c.588 0 1.064.477 1.064 1.065s-.476 1.064-1.064 1.064c-.588 0-1.065-.476-1.065-1.064 0-.588.477-1.065 1.065-1.065z"/></g></g>
</svg>
