<svg xmlns="http://www.w3.org/2000/svg" width="64" height="64" viewBox="0 0 64 64">
    <defs>
        <linearGradient id="qan79zgh3a" x1="100%" x2="100%" y1="0%" y2="100%">
            <stop offset="0%" stop-color="#E8C47E"/>
            <stop offset="100%" stop-color="#D8A843"/>
        </linearGradient>
    </defs>
    <g fill="none" fill-rule="evenodd">
        <g fill="url(#qan79zgh3a)" fill-rule="nonzero">
            <path d="M59.615 0c2.282.001 4.144 1.797 4.251 4.052l.005.206v22.354c0 .549-.415 1-.949 1.058l-.116.007V56.03c.001.315-.045.627-.136.927l-.076.222-2.054 5.322c-.314.829-1.109 1.376-1.995 1.374-.83-.001-1.579-.485-1.925-1.23l-.064-.152-2.05-5.323c-.114-.293-.182-.6-.205-.913l-.008-.235V27.677c-.549 0-1-.416-1.058-.949l-.007-.116V8.516l-1.703 1.277c-.234.176-.384.44-.418.727l-.008.125v21.29c0 .588-.476 1.064-1.064 1.064-.549 0-1-.415-1.058-.948l-.007-.116v-21.29c.003-.938.415-1.824 1.122-2.43l.156-.125 2.98-2.235V4.258c0-2.282 1.796-4.145 4.052-4.253L57.486 0h2.13zM27.681 0c1.703 0 3.094 1.333 3.188 3.012l.005.181v1.065h1.065c1.284.005 2.433.778 2.928 1.95l.07.179h4.453c4.031.004 7.313 3.206 7.447 7.206l.004.245v42.58c-.004 4.03-3.206 7.313-7.205 7.447l-.246.004H7.455c-4.03-.004-7.313-3.206-7.447-7.205l-.004-.246v-42.58C.01 9.808 3.21 6.525 7.21 6.391l.245-.004h4.454c.428-1.21 1.537-2.041 2.806-2.123l.192-.006h1.064V3.193c0-1.702 1.333-3.094 3.013-3.188l.18-.005h8.517zM11.714 8.516H7.456c-2.865.003-5.2 2.267-5.318 5.103l-.005.22v42.579c.003 2.864 2.267 5.2 5.103 5.318l.22.004H39.39c2.865-.003 5.2-2.267 5.318-5.103l.005-.22V13.839c-.004-2.864-2.267-5.2-5.104-5.317l-.219-.005h-4.258V9.58c0 .269-.02.536-.06.801l-.046.264h4.364c1.703 0 3.095 1.333 3.189 3.012l.005.181v42.58c0 1.703-1.333 3.094-3.013 3.188l-.18.005H7.455c-1.703 0-3.095-1.333-3.189-3.012l-.005-.181v-42.58c0-1.703 1.333-3.094 3.012-3.188l.182-.005h4.364c-.053-.263-.087-.53-.1-.797l-.006-.268V8.516zM60.19 57.482h-3.283l1.643 4.249 1.64-4.249zM12.806 12.774h-5.35c-.55 0-1.001.415-1.059.948l-.006.116v42.58c0 .549.415 1 .948 1.058l.116.006H39.39c.549 0 1-.415 1.058-.948l.007-.116v-42.58c0-.548-.416-1-.949-1.058l-.116-.006h-5.35c-.944 1.265-2.4 2.04-3.968 2.122l-.262.007H17.036c-1.667-.005-3.234-.794-4.23-2.13zM60.68 27.677h-4.258v27.676h4.258V27.677zM34.068 41.515c1.176 0 2.129.953 2.129 2.129v4.258c0 1.176-.954 2.129-2.13 2.129H29.81c-1.176 0-2.13-.953-2.13-2.13v-4.257c0-1.176.954-2.13 2.13-2.13zm0 2.129H29.81v4.258h4.258v-4.258zm-9.58 1.064c.587 0 1.064.477 1.064 1.065 0 .549-.415 1-.949 1.058l-.116.006H11.713c-.587 0-1.064-.476-1.064-1.064 0-.549.415-1 .948-1.058l.116-.007h12.774zm11.384-13.513c.379.379.413.974.099 1.392l-.086.1-4.258 4.258c-.384.384-.988.413-1.405.089l-.1-.089-2.13-2.129c-.403-.417-.397-1.081.014-1.492.379-.38.974-.413 1.391-.099l.1.086 1.377 1.376 3.506-3.505c.417-.403 1.081-.398 1.492.013zm-11.385 2.869c.588 0 1.065.476 1.065 1.064 0 .549-.415 1-.949 1.058l-.116.007H11.713c-.587 0-1.064-.477-1.064-1.065 0-.549.415-1 .948-1.058l.116-.006h12.774zM35.872 20.55c.379.38.413.974.099 1.392l-.086.1-4.258 4.258c-.384.384-.988.413-1.405.089l-.1-.089-2.13-2.129c-.403-.417-.397-1.081.014-1.492.379-.379.974-.413 1.391-.099l.1.086 1.377 1.376 3.506-3.505c.417-.403 1.081-.397 1.492.013zM59.615 2.13h-2.129c-1.124 0-2.045.872-2.123 1.977l-.006.152v21.29h6.387V4.258c0-1.176-.953-2.129-2.129-2.129zm-35.128 21.29c.588 0 1.065.476 1.065 1.064 0 .549-.415 1-.949 1.058l-.116.007H11.713c-.587 0-1.064-.477-1.064-1.065 0-.549.415-1 .948-1.058l.116-.006h12.774zM31.94 6.387H14.907c-.549 0-1 .415-1.058.948l-.007.116v2.13c0 1.702 1.333 3.094 3.013 3.188l.18.005H29.81c1.703 0 3.094-1.333 3.188-3.012l.005-.182V7.451c0-.588-.476-1.064-1.064-1.064zM25.552 7.45c.588 0 1.064.477 1.064 1.065 0 .549-.415 1-.948 1.058l-.116.006h-4.258c-.588 0-1.065-.476-1.065-1.064 0-.549.415-1 .949-1.058l.116-.007h4.258zM27.68 2.13h-8.516c-.549 0-1 .415-1.058.948l-.007.116v1.065h10.645V3.193c0-.587-.476-1.064-1.064-1.064z"/>
        </g>
    </g>
</svg>
