<svg xmlns="http://www.w3.org/2000/svg" width="64" height="64" viewBox="0 0 64 64">
    <defs><linearGradient id="8z9f504lxa" x1="100%" x2="100%" y1="0%" y2="100%">
        <stop offset="0%" stop-color="#E8C47E"/>
        <stop offset="100%" stop-color="#D8A843"/>
    </linearGradient></defs>
    <g fill="none" fill-rule="evenodd"><g fill="url(#8z9f504lxa)" fill-rule="nonzero"><path d="M58.552 0c2.865.003 5.2 2.267 5.318 5.104l.005.219v44.713c-.003 2.864-2.267 5.2-5.103 5.318l-.22.005H42.584v2.129h4.258c2.352 0 4.258 1.906 4.258 4.258 0 1.125-.872 2.046-1.977 2.124l-.152.005H14.904c-1.176 0-2.129-.953-2.129-2.129 0-2.283 1.796-4.146 4.052-4.253l.206-.005h4.259v-2.13H5.322c-2.864-.003-5.2-2.267-5.317-5.103L0 50.035V5.324C.003 2.458 2.267.123 5.104.005L5.323 0h53.23zm-11.71 59.617H17.033c-1.124 0-2.045.872-2.123 1.977l-.006.152h34.067c0-1.176-.953-2.13-2.13-2.13zm-6.388-4.258H23.421v2.129h17.033v-2.13zm21.292-8.517H2.129v3.194c0 1.703 1.333 3.094 3.013 3.188l.18.005h53.23c1.703 0 3.095-1.333 3.189-3.012l.005-.181v-3.194zM35.131 48.97c.588 0 1.065.477 1.065 1.065 0 .548-.415 1-.949 1.058l-.116.006h-6.387c-.588 0-1.065-.476-1.065-1.064 0-.55.415-1.001.949-1.059l.116-.006h6.387zM58.552 2.129H5.322c-1.702 0-3.094 1.333-3.188 3.013l-.005.18v39.39h59.617V5.323c0-1.763-1.43-3.193-3.194-3.193zM43.648 12.775c6.965-.004 13.003 4.818 14.539 11.611 1.536 6.794-1.84 13.744-8.13 16.737-6.288 2.993-13.811 1.229-18.114-4.248-2.622 3.351-6.554 5.419-10.8 5.68-4.119.254-8.151-1.214-11.14-4.043l-.277-.269-.037-.025c-.012-.011-.015-.026-.026-.038-5.787-5.804-5.787-15.197 0-21.002.01-.012.015-.025.026-.037.01-.012.025-.015.037-.026 3.014-3.004 7.17-4.573 11.416-4.312 4.247.262 8.179 2.33 10.801 5.68 2.817-3.6 7.133-5.706 11.705-5.708zm0 2.13c-7.055 0-12.775 5.719-12.775 12.774 0 7.056 5.72 12.775 12.775 12.775 7.052-.007 12.767-5.722 12.775-12.775 0-7.055-5.72-12.775-12.775-12.775zM13.495 35.916l-1.509 1.509c1.922 1.63 4.283 2.65 6.781 2.935l.396.039v-2.13c-2.08-.207-4.053-1.026-5.668-2.353zm16.128-3.244c-1.62 3.043-4.607 5.11-8.011 5.56l-.32.038v2.116c3.777-.307 7.219-2.29 9.38-5.403-.415-.739-.766-1.512-1.049-2.31zm-9.396-13.51c-4.704 0-8.517 3.812-8.517 8.516 0 4.704 3.814 8.517 8.517 8.517 4.702-.005 8.512-3.815 8.517-8.517 0-4.704-3.813-8.517-8.517-8.517zm-10.591 9.58h-2.13c.208 2.513 1.157 4.903 2.723 6.87l.252.307 1.508-1.508c-1.327-1.616-2.146-3.588-2.353-5.668zm38.27 0c1.764 0 3.194 1.43 3.194 3.195 0 1.763-1.43 3.193-3.194 3.193-1.763 0-3.193-1.43-3.193-3.193 0-1.764 1.43-3.194 3.193-3.194zm.312-7.14c.416-.415 1.09-.415 1.506 0 .415.416.415 1.09 0 1.506L39.078 33.755c-.267.277-.663.388-1.035.29-.373-.097-.663-.388-.76-.76-.098-.372.013-.768.29-1.035zm-28.026-1.376c.236-.008.468.063.659.202.831.477 1.6 1.056 2.287 1.724 1.141 1.087 1.93 2.492 2.263 4.033.22 1.062.01 2.168-.583 3.075-.254.384-.577.715-.953.977l-.193.125.3.907c.214.65.103 1.362-.297 1.915-.367.508-.938.826-1.556.875l-.17.007h-3.443c-.684 0-1.327-.328-1.727-.883-.368-.508-.49-1.15-.342-1.754l.047-.163.297-.9c-.458-.278-.848-.654-1.143-1.102-.595-.91-.804-2.021-.58-3.087.576-2.355 2.099-4.362 4.2-5.554l.265-.144.007.008c.184-.16.418-.252.662-.26zm27.714 10.646c-.588 0-1.064.477-1.064 1.065s.476 1.064 1.064 1.064c.588 0 1.065-.476 1.065-1.064 0-.588-.477-1.065-1.065-1.065zm-27.679-8.325c-1.538.88-2.653 2.348-3.087 4.067-.106.508-.008 1.038.271 1.475.203.32.526.544.897.621.3.058.56.243.715.507.133.226.176.492.126.746l-.033.126-.61 1.848h3.443l-.613-1.852c-.097-.29-.065-.61.09-.874.154-.265.415-.451.716-.51.372-.076.698-.3.902-.62.28-.434.378-.962.27-1.467-.253-1.129-.838-2.155-1.68-2.948-.43-.42-.9-.796-1.407-1.119zm-9.746-3.11c-1.63 1.922-2.65 4.283-2.936 6.781l-.039.396h2.13c.195-1.958.932-3.82 2.124-5.38l.23-.288-1.51-1.509zm30.13 1.032c1.194.495 1.972 1.66 1.972 2.95 0 1.765-1.43 3.195-3.193 3.195-1.292 0-2.457-.778-2.951-1.972-.494-1.193-.221-2.567.692-3.48.914-.914 2.287-1.187 3.48-.693zm-1.221 1.886c-.588 0-1.065.477-1.065 1.065s.477 1.064 1.065 1.064 1.064-.476 1.064-1.064c0-.588-.476-1.065-1.064-1.065zm-18.098-7.385v2.117c3.536.36 6.66 2.46 8.331 5.597.283-.799.634-1.572 1.049-2.31-2.161-3.114-5.603-5.097-9.38-5.404zm-2.13-.013c-2.511.208-4.901 1.157-6.869 2.723l-.307.252 1.509 1.508c1.52-1.248 3.357-2.047 5.302-2.31l.366-.043v-2.13zm39.39-6.441c.588 0 1.065.476 1.065 1.064 0 .549-.415 1-.949 1.059l-.116.006H5.322c-.587 0-1.064-.477-1.064-1.065 0-.549.415-1 .949-1.058l.116-.006h53.23zM6.388 4.258c.587 0 1.064.477 1.064 1.065s-.477 1.065-1.064 1.065c-.588 0-1.065-.477-1.065-1.065S5.8 4.258 6.388 4.258zm4.258 0c.588 0 1.064.477 1.064 1.065s-.476 1.065-1.064 1.065c-.588 0-1.065-.477-1.065-1.065s.477-1.065 1.065-1.065zm4.258 0c.588 0 1.065.477 1.065 1.065s-.477 1.065-1.065 1.065-1.064-.477-1.064-1.065.476-1.065 1.064-1.065z"/></g></g>
</svg>
