<svg xmlns="http://www.w3.org/2000/svg" width="64" height="64" viewBox="0 0 64 64">
    <defs><linearGradient id="k7tlq2lhxa" x1="100%" x2="100%" y1="0%" y2="100%">
        <stop offset="0%" stop-color="#E8C47E"/>
        <stop offset="100%" stop-color="#D8A843"/>
    </linearGradient></defs>
    <g fill="none" fill-rule="evenodd"><g fill="url(#k7tlq2lhxa)" fill-rule="nonzero"><path d="M34.512 0c1.102 0 2.12.568 2.702 1.493l.104.177L39.09 4.94l6.884 2.858 3.567-1.064c1.056-.314 2.195-.059 3.015.663l.15.14 3.636 3.636c.78.78 1.098 1.901.855 2.966l-.052.2-1.059 3.566 2.853 6.884 3.268 1.772c.967.527 1.59 1.511 1.659 2.6l.006.206v5.143c0 1.102-.568 2.12-1.492 2.702l-.178.104-3.269 1.773-2.852 6.884 1.059 3.566c.313 1.056.058 2.195-.663 3.015l-.14.15L52.7 56.34c-.78.78-1.902 1.098-2.967.855l-.199-.052-3.566-1.058-6.884 2.852-1.773 3.269c-.525.968-1.51 1.593-2.6 1.664l-.205.006h-5.144c-1.102 0-2.12-.568-2.702-1.493l-.104-.177-1.772-3.269-6.884-2.852-3.567 1.058c-1.056.314-2.194.06-3.015-.662l-.15-.141-3.636-3.636c-.779-.779-1.098-1.9-.855-2.966l.052-.199 1.064-3.566-2.852-6.884-3.269-1.773C.704 36.79.08 35.805.01 34.715l-.006-.206v-5.143c0-1.102.568-2.12 1.493-2.702l.177-.104 3.269-1.772L7.8 17.904l-1.064-3.567c-.314-1.056-.06-2.195.662-3.015l.14-.15 3.637-3.641c.779-.78 1.9-1.098 2.966-.856l.199.053 3.566 1.064 6.884-2.853 1.773-3.269c.525-.968 1.51-1.593 2.6-1.663L29.37 0h5.143zm.007 2.132h-5.143c-.347 0-.668.17-.866.447l-.068.11-1.954 3.6c-.097.18-.244.326-.422.423l-.11.053-7.58 3.14c-.181.076-.378.099-.57.07l-.141-.032-3.928-1.17c-.332-.1-.69-.029-.958.182l-.097.086-3.639 3.639c-.245.243-.354.588-.3.923l.028.126 1.17 3.926c.056.187.059.385.01.572l-.047.138-3.14 7.581c-.078.19-.208.351-.373.468l-.103.064-3.601 1.953c-.305.165-.507.467-.549.806l-.007.129v5.149c0 .346.169.668.447.866l.109.068 3.6 1.944c.18.097.326.244.424.422l.052.11 3.145 7.577c.075.18.099.378.07.569l-.032.142-1.17 3.927c-.1.333-.03.69.182.96l.085.096 3.632 3.643c.245.246.593.354.93.297l.126-.03 3.926-1.17c.099-.029.2-.043.304-.043.093 0 .185.012.275.036l.132.045 7.581 3.14c.189.078.351.207.468.373l.064.103 1.953 3.6c.165.306.467.508.806.55l.129.007h5.148c.347 0 .669-.169.866-.447l.068-.11 1.941-3.604c.098-.18.245-.326.422-.423l.11-.053 7.581-3.14c.18-.075.377-.099.569-.07l.142.032 3.927 1.17c.333.1.69.029.959-.182l.096-.085 3.643-3.632c.246-.245.355-.593.298-.93l-.03-.126-1.17-3.926c-.055-.188-.058-.386-.009-.573l.046-.138 3.141-7.581c.077-.19.207-.351.372-.468l.104-.064 3.6-1.953c.305-.165.508-.467.55-.806l.007-.129-.005-5.136c0-.346-.169-.668-.447-.866l-.109-.068-3.6-1.953c-.18-.098-.326-.245-.424-.422l-.052-.11-3.141-7.581c-.075-.18-.098-.377-.069-.569l.032-.142 1.17-3.927c.099-.333.028-.69-.182-.959l-.086-.096-3.631-3.643c-.246-.246-.594-.355-.931-.298l-.126.03-3.926 1.17c-.187.055-.385.058-.573.009l-.138-.047-7.58-3.14c-.19-.077-.352-.207-.468-.372l-.065-.104-1.945-3.596c-.186-.343-.545-.557-.935-.557zM31.94 9.594c10.336-.01 19.328 7.073 21.737 17.124 2.408 10.05-2.395 20.44-11.613 25.116-.07.044-.146.08-.225.106-6.23 3.123-13.567 3.123-19.797 0-.079-.026-.155-.062-.226-.106C12.6 47.16 7.796 36.768 10.204 26.718c2.409-10.051 11.4-17.135 21.736-17.124zm6.384 37.24H25.556c-1.124 0-2.044.871-2.122 1.975l-.006.152v1.288c5.26 2.477 11.33 2.538 16.628.181l.396-.181V48.96c0-1.175-.953-2.128-2.128-2.128zM31.94 11.688c-9.034 0-16.972 5.995-19.444 14.685-2.436 8.564 1.02 17.697 8.473 22.51l.331.21v-.133c0-2.28 1.795-4.143 4.05-4.25l.206-.006h1.064v-2.127h-6.384c-2.28 0-4.143-1.795-4.25-4.05l-.005-.206V26.618c0-2.282 1.794-4.144 4.05-4.251l.205-.005h10.64v-2.324c-1.465-.518-2.345-2.017-2.082-3.549.263-1.532 1.592-2.652 3.146-2.652 1.555 0 2.883 1.12 3.146 2.652.253 1.47-.548 2.911-1.909 3.482l-.173.067v2.324h10.64c2.281 0 4.144 1.795 4.251 4.05l.005.206v11.704c0 2.28-1.795 4.143-4.05 4.25l-.206.006H37.26v2.127h1.064c2.281 0 4.144 1.795 4.251 4.05l.005.206v.133c7.682-4.755 11.277-14.03 8.805-22.72-2.472-8.69-10.41-14.685-19.445-14.685zm3.192 30.888h-6.384v2.128h6.384v-2.128zm8.512-18.087H20.236c-1.124 0-2.044.871-2.122 1.976l-.005.152V38.32c0 1.125.871 2.045 1.975 2.123l.152.005h23.408c1.124 0 2.045-.871 2.123-1.976l.005-.152V26.618c0-1.176-.953-2.128-2.128-2.128zM28.536 34.49c.803 1.072 2.065 1.703 3.404 1.703 1.34 0 2.601-.631 3.405-1.703.353-.47 1.02-.565 1.49-.213.47.353.565 1.02.212 1.49-1.205 1.607-3.097 2.553-5.107 2.553-2.01 0-3.901-.946-5.107-2.553-.228-.304-.276-.707-.127-1.056.15-.35.474-.593.851-.639.377-.045.75.114.979.418zm-4.576-7.873c2.057 0 3.724 1.667 3.724 3.724 0 2.056-1.667 3.724-3.724 3.724-.987 0-1.934-.393-2.633-1.091-.698-.699-1.09-1.646-1.09-2.633 0-2.057 1.667-3.724 3.723-3.724zm15.96 0c2.057 0 3.724 1.667 3.724 3.724 0 2.056-1.667 3.724-3.724 3.724-2.057 0-3.724-1.668-3.724-3.724 0-2.057 1.667-3.724 3.724-3.724zm-15.96 2.128c-.881 0-1.596.714-1.596 1.596 0 .881.715 1.596 1.596 1.596.882 0 1.596-.715 1.596-1.596 0-.882-.714-1.596-1.596-1.596zm15.96 0c-.881 0-1.596.714-1.596 1.596 0 .881.715 1.596 1.596 1.596.882 0 1.596-.715 1.596-1.596 0-.882-.714-1.596-1.596-1.596zm-7.98-12.768c-.587 0-1.064.476-1.064 1.064 0 .587.477 1.064 1.064 1.064.588 0 1.064-.477 1.064-1.064 0-.588-.476-1.064-1.064-1.064z"/></g></g>
</svg>
